<svg width="25" height="34" viewBox="0 0 25 34" fill="none" xmlns="http://www.w3.org/2000/svg">
<path d="M3.07895 0.260742C1.37911 0.260742 0 1.64922 0 3.36061V30.2261C0 31.9375 1.37911 33.326 3.07895 33.326H9.23684V28.1595C9.23684 26.4481 10.616 25.0597 12.3158 25.0597C14.0156 25.0597 15.3947 26.4481 15.3947 28.1595V33.326H21.5526C23.2525 33.326 24.6316 31.9375 24.6316 30.2261V3.36061C24.6316 1.64922 23.2525 0.260742 21.5526 0.260742H3.07895ZM4.10526 15.7601C4.10526 15.1918 4.56711 14.7268 5.13158 14.7268H7.18421C7.74868 14.7268 8.21053 15.1918 8.21053 15.7601V17.8266C8.21053 18.3949 7.74868 18.8599 7.18421 18.8599H5.13158C4.56711 18.8599 4.10526 18.3949 4.10526 17.8266V15.7601ZM11.2895 14.7268H13.3421C13.9066 14.7268 14.3684 15.1918 14.3684 15.7601V17.8266C14.3684 18.3949 13.9066 18.8599 13.3421 18.8599H11.2895C10.725 18.8599 10.2632 18.3949 10.2632 17.8266V15.7601C10.2632 15.1918 10.725 14.7268 11.2895 14.7268ZM16.4211 15.7601C16.4211 15.1918 16.8829 14.7268 17.4474 14.7268H19.5C20.0645 14.7268 20.5263 15.1918 20.5263 15.7601V17.8266C20.5263 18.3949 20.0645 18.8599 19.5 18.8599H17.4474C16.8829 18.8599 16.4211 18.3949 16.4211 17.8266V15.7601ZM5.13158 6.46047H7.18421C7.74868 6.46047 8.21053 6.92545 8.21053 7.49376V9.56034C8.21053 10.1286 7.74868 10.5936 7.18421 10.5936H5.13158C4.56711 10.5936 4.10526 10.1286 4.10526 9.56034V7.49376C4.10526 6.92545 4.56711 6.46047 5.13158 6.46047ZM10.2632 7.49376C10.2632 6.92545 10.725 6.46047 11.2895 6.46047H13.3421C13.9066 6.46047 14.3684 6.92545 14.3684 7.49376V9.56034C14.3684 10.1286 13.9066 10.5936 13.3421 10.5936H11.2895C10.725 10.5936 10.2632 10.1286 10.2632 9.56034V7.49376ZM17.4474 6.46047H19.5C20.0645 6.46047 20.5263 6.92545 20.5263 7.49376V9.56034C20.5263 10.1286 20.0645 10.5936 19.5 10.5936H17.4474C16.8829 10.5936 16.4211 10.1286 16.4211 9.56034V7.49376C16.4211 6.92545 16.8829 6.46047 17.4474 6.46047Z" fill="#0A3641"/>
</svg>
