<svg width="45" height="33" viewBox="0 0 45 33" fill="none" xmlns="http://www.w3.org/2000/svg">
<path d="M27.7779 6.19023C28.662 6.19023 29.5098 5.86671 30.1349 5.29084C30.7601 4.71497 31.1113 3.93393 31.1113 3.11953C31.1113 2.30513 30.7601 1.52408 30.1349 0.948215C29.5098 0.372347 28.662 0.0488281 27.7779 0.0488281C26.8939 0.0488281 26.046 0.372347 25.4209 0.948215C24.7958 1.52408 24.4446 2.30513 24.4446 3.11953C24.4446 3.93393 24.7958 4.71497 25.4209 5.29084C26.046 5.86671 26.8939 6.19023 27.7779 6.19023ZM29.6668 10.2845L25.3751 7.16261C24.1737 6.29258 22.4793 6.27979 21.2709 7.14342L15.5001 11.2505C13.3681 12.773 13.5209 15.7798 15.7987 17.1104L20.0001 19.567V26.6616C20.0001 27.7939 20.9932 28.7087 22.2223 28.7087C23.4515 28.7087 24.4446 27.7939 24.4446 26.6616V18.473C24.4446 17.7885 24.0765 17.1488 23.4584 16.7713L20.4862 14.9481L24.6737 11.8454L27.5001 13.9309C27.896 14.2188 28.3821 14.3788 28.889 14.3788H33.3335C34.5627 14.3788 35.5557 13.4639 35.5557 12.3316C35.5557 11.1993 34.5627 10.2845 33.3335 10.2845H29.6668ZM3.88891 24.6144C3.88891 23.3928 4.41569 22.2213 5.35338 21.3575C6.29107 20.4937 7.56284 20.0084 8.88893 20.0084C10.215 20.0084 11.4868 20.4937 12.4245 21.3575C13.3622 22.2213 13.889 23.3928 13.889 24.6144C13.889 25.836 13.3622 27.0076 12.4245 27.8714C11.4868 28.7352 10.215 29.2205 8.88893 29.2205C7.56284 29.2205 6.29107 28.7352 5.35338 27.8714C4.41569 27.0076 3.88891 25.836 3.88891 24.6144ZM17.7779 24.6144C17.7779 22.4427 16.8414 20.3599 15.1744 18.8243C13.5074 17.2886 11.2464 16.4259 8.88893 16.4259C6.53144 16.4259 4.27051 17.2886 2.60351 18.8243C0.93651 20.3599 0 22.4427 0 24.6144C0 26.7862 0.93651 28.8689 2.60351 30.4046C4.27051 31.9402 6.53144 32.803 8.88893 32.803C11.2464 32.803 13.5074 31.9402 15.1744 30.4046C16.8414 28.8689 17.7779 26.7862 17.7779 24.6144ZM30.5557 24.6144C30.5557 23.3928 31.0825 22.2213 32.0202 21.3575C32.9579 20.4937 34.2296 20.0084 35.5557 20.0084C36.8818 20.0084 38.1536 20.4937 39.0913 21.3575C40.029 22.2213 40.5558 23.3928 40.5558 24.6144C40.5558 25.836 40.029 27.0076 39.0913 27.8714C38.1536 28.7352 36.8818 29.2205 35.5557 29.2205C34.2296 29.2205 32.9579 28.7352 32.0202 27.8714C31.0825 27.0076 30.5557 25.836 30.5557 24.6144ZM44.4447 24.6144C44.4447 22.4427 43.5081 20.3599 41.8412 18.8243C40.1742 17.2886 37.9132 16.4259 35.5557 16.4259C33.1982 16.4259 30.9373 17.2886 29.2703 18.8243C27.6033 20.3599 26.6668 22.4427 26.6668 24.6144C26.6668 26.7862 27.6033 28.8689 29.2703 30.4046C30.9373 31.9402 33.1982 32.803 35.5557 32.803C37.9132 32.803 40.1742 31.9402 41.8412 30.4046C43.5081 28.8689 44.4447 26.7862 44.4447 24.6144Z" fill="#0A3641"/>
</svg>
