<svg width="24" height="25" viewBox="0 0 24 25" fill="none" xmlns="http://www.w3.org/2000/svg">
<mask id="mask0_337_1310" style="mask-type:alpha" maskUnits="userSpaceOnUse" x="0" y="0" width="24" height="25">
<path d="M16.5365 24.4385V15.151H19.6463L20.1117 11.5405H16.5365V9.23534C16.5365 8.19 16.8267 7.4776 18.3257 7.4776L20.2377 7.4767V4.24749C19.9069 4.20357 18.7721 4.10522 17.4517 4.10522C14.6951 4.10522 12.808 5.78778 12.808 8.87784V11.5405H9.69027V15.151H12.808V24.4385H1.33333C0.59696 24.4385 0 23.8415 0 23.1051V1.77181C0 1.03544 0.59696 0.438477 1.33333 0.438477H22.6667C23.4031 0.438477 24 1.03544 24 1.77181V23.1051C24 23.8415 23.4031 24.4385 22.6667 24.4385H16.5365Z" fill="#475569"/>
</mask>
<g mask="url(#mask0_337_1310)">
<rect x="-10.6666" y="-4.89478" width="44" height="36" fill="white"/>
</g>
</svg>
