<svg width="27" height="33" viewBox="0 0 27 33" fill="none" xmlns="http://www.w3.org/2000/svg">
<path d="M13.104 3.13736C13.104 2.31823 13.4608 1.53265 14.0959 0.953437C14.731 0.374226 15.5923 0.0488281 16.4905 0.0488281C17.3886 0.0488281 18.2499 0.374226 18.885 0.953437C19.5201 1.53265 19.8769 2.31823 19.8769 3.13736C19.8769 3.95649 19.5201 4.74207 18.885 5.32128C18.2499 5.90049 17.3886 6.22589 16.4905 6.22589C15.5923 6.22589 14.731 5.90049 14.0959 5.32128C13.4608 4.74207 13.104 3.95649 13.104 3.13736ZM16.7233 14.8931L15.3758 19.8025L18.8821 23.0005C19.5171 23.5796 19.8769 24.3646 19.8769 25.1817V30.9341C19.8769 32.073 18.868 32.9931 17.6193 32.9931C16.3705 32.9931 15.3617 32.073 15.3617 30.9341V25.6128L10.148 20.8578C9.03329 19.8412 8.58176 18.3741 8.95568 16.9778L10.3949 11.5729C10.9805 9.37876 13.4074 8.0404 15.8061 8.58732C17.1466 8.89618 18.3177 9.64257 19.0797 10.6914L21.0833 13.4325H23.2633V11.8882C23.2633 11.0324 24.0182 10.3439 24.9565 10.3439C25.8948 10.3439 26.6497 11.0324 26.6497 11.8882V15.4786C26.6497 15.485 26.6497 15.4915 26.6497 15.4915V15.5043V31.4489C26.6497 32.3047 25.8948 32.9931 24.9565 32.9931C24.0182 32.9931 23.2633 32.3047 23.2633 31.4489V17.5505H20.4836C19.3548 17.5505 18.2965 17.0357 17.6686 16.1735L16.7303 14.8866L16.7233 14.8931ZM5.28001 30.4129L7.83393 21.5398C8.04558 21.8101 8.28545 22.0675 8.54649 22.3055L11.5025 25.0016L9.64002 31.4553C9.32254 32.5556 8.08791 33.2119 6.8815 32.9224C5.67509 32.6328 4.95548 31.5068 5.27295 30.4065L5.28001 30.4129ZM9.19555 8.14978L6.71218 17.1966C6.50053 17.9752 5.66098 18.4771 4.79321 18.3484L1.41385 17.8336C0.426147 17.6856 -0.201751 16.7848 0.0592854 15.9033L1.80893 10.0222C2.47916 7.78302 4.70855 6.22589 7.25542 6.22589H7.55173C8.65232 6.22589 9.46364 7.17175 9.19555 8.14335V8.14978Z" fill="#0A3641"/>
</svg>
