<svg width="27" height="26" viewBox="0 0 27 26" fill="none" xmlns="http://www.w3.org/2000/svg">
<mask id="mask0_337_1312" style="mask-type:alpha" maskUnits="userSpaceOnUse" x="0" y="0" width="27" height="26">
<path d="M14.6761 0C16.1166 0.00238082 16.8466 0.00999689 17.4774 0.0287746L17.7259 0.0369027C18.0128 0.0471044 18.296 0.0599047 18.6373 0.0759048C19.9994 0.13883 20.9286 0.354307 21.7446 0.671109C22.5882 0.996436 23.3008 1.43592 24.0122 2.14738C24.7226 2.85885 25.1622 3.57353 25.4886 4.41514C25.8042 5.23007 26.0198 6.16021 26.0838 7.52236C26.099 7.86369 26.1113 8.14683 26.1214 8.43387L26.1295 8.68229C26.1482 9.31302 26.1568 10.0431 26.1595 11.4836L26.1605 12.4381C26.1606 12.5547 26.1606 12.6751 26.1606 12.7992L26.1605 13.1603L26.1597 14.1148C26.1573 15.5553 26.1497 16.2853 26.1309 16.9161L26.1227 17.1646C26.1126 17.4515 26.0998 17.7347 26.0838 18.0761C26.0208 19.4381 25.8042 20.3673 25.4886 21.1833C25.1632 22.0269 24.7226 22.7395 24.0122 23.451C23.3008 24.1614 22.585 24.6009 21.7446 24.9273C20.9286 25.243 19.9994 25.4585 18.6373 25.5225C18.296 25.5378 18.0128 25.55 17.7259 25.5602L17.4774 25.5682C16.8466 25.5869 16.1166 25.5955 14.6761 25.5982L13.7216 25.5992C13.605 25.5993 13.4847 25.5993 13.3605 25.5993L12.9994 25.5992L12.0449 25.5984C10.6044 25.596 9.8743 25.5884 9.24357 25.5696L8.99515 25.5614C8.70811 25.5513 8.42497 25.5385 8.08364 25.5225C6.72149 25.4595 5.79349 25.243 4.97642 24.9273C4.13374 24.6019 3.42013 24.1614 2.70866 23.451C1.99719 22.7395 1.55879 22.0237 1.23239 21.1833C0.915586 20.3673 0.701185 19.4381 0.637184 18.0761C0.621978 17.7347 0.609574 17.4515 0.599526 17.1646L0.591475 16.9161C0.572748 16.2853 0.564211 15.5553 0.561446 14.1148L0.561279 11.4836C0.56366 10.0431 0.571276 9.31302 0.590054 8.68229L0.598182 8.43387C0.608384 8.14683 0.621184 7.86369 0.637184 7.52236C0.700109 6.15915 0.915586 5.23114 1.23239 4.41514C1.55772 3.57246 1.99719 2.85885 2.70866 2.14738C3.42013 1.43592 4.13481 0.997512 4.97642 0.671109C5.79242 0.354307 6.72043 0.139905 8.08364 0.0759048C8.42497 0.0606983 8.70811 0.0482948 8.99515 0.0382468L9.24357 0.0301955C9.8743 0.011469 10.6044 0.00293145 12.0449 0.000166627L14.6761 0ZM13.3605 6.39915C9.82394 6.39915 6.96043 9.26577 6.96043 12.7992C6.96043 16.3358 9.82705 19.1993 13.3605 19.1993C16.897 19.1993 19.7606 16.3326 19.7606 12.7992C19.7606 9.26266 16.8938 6.39915 13.3605 6.39915ZM13.3605 8.95917C15.4814 8.95917 17.2005 10.6777 17.2005 12.7992C17.2005 14.9201 15.4819 16.6393 13.3605 16.6393C11.2397 16.6393 9.52045 14.9206 9.52045 12.7992C9.52045 10.6784 11.239 8.95917 13.3605 8.95917ZM20.0806 4.47914C19.1982 4.47914 18.4805 5.19582 18.4805 6.07806C18.4805 6.9603 19.1972 7.67809 20.0806 7.67809C20.9627 7.67809 21.6806 6.96141 21.6806 6.07806C21.6806 5.19582 20.9616 4.47802 20.0806 4.47914Z" fill="#475569"/>
</mask>
<g mask="url(#mask0_337_1312)">
<rect x="-3.28003" y="-2.56104" width="32.0002" height="30.7202" fill="white"/>
</g>
</svg>
