<svg width="47" height="32" viewBox="0 0 47 32" fill="none" xmlns="http://www.w3.org/2000/svg">
<path d="M0 4C0 1.79086 1.75355 0 3.91667 0H43.0833C45.2465 0 47 1.79086 47 4V28C47 30.2091 45.2464 32 43.0833 32H3.91667C1.75355 32 0 30.2091 0 28V4Z" fill="#FFCCD9"/>
<path d="M43.0837 19.3028V19.3317C43.0808 19.9652 42.5744 20.4766 41.9541 20.4737C41.3338 20.4709 40.8321 19.9537 40.8358 19.3201C40.8387 18.6857 41.3451 18.1752 41.9654 18.1781H41.9748C42.5848 18.1762 43.0818 18.6799 43.0837 19.3028Z" fill="#1D1D1B"/>
<path d="M36.7473 18.8666C35.8907 18.9272 35.1481 18.2677 35.0878 17.3929C35.0285 16.5181 35.6742 15.7596 36.5318 15.698C36.5647 15.6961 36.5986 15.6942 36.6325 15.6942C37.4891 15.6336 38.2327 16.2931 38.292 17.1679C38.3513 18.0427 37.7056 18.8022 36.849 18.8627C36.8151 18.8656 36.7812 18.8666 36.7473 18.8666ZM38.3061 14.2214V14.6166C36.865 13.6177 34.9043 14.0013 33.9262 15.4731C32.9482 16.9449 33.3238 18.9473 34.7649 19.9462C35.8343 20.6873 37.2377 20.6873 38.3061 19.9462V20.3413H40.0842V14.2205L38.3061 14.2214Z" fill="#1D1D1B"/>
<path d="M32.783 16.4409V20.3179H31.0049V17.0917C31.0049 16.2054 30.555 15.7247 29.7812 15.7247C29.7191 15.7141 29.6551 15.7141 29.593 15.7247C28.9021 15.7891 28.39 16.4082 28.4427 17.1138V20.3285H26.6542V14.2077H28.422V14.9018C28.8569 14.326 29.5412 14.0058 30.2519 14.0472C30.3046 14.0472 30.3667 14.0366 30.4194 14.0366C31.7222 14.0347 32.7802 15.1104 32.783 16.4409Z" fill="#1D1D1B"/>
<path d="M25.8271 14.2285V16.0012H25.8064C25.1061 16.0012 24.0913 16.5242 24.0913 17.4855V20.3483H22.2709V14.2285H24.0801V15.0293C24.5159 14.5092 25.1569 14.216 25.8271 14.2285Z" fill="#1D1D1B"/>
<path d="M18.0022 18.8539C17.1437 18.8577 16.4443 18.1502 16.4406 17.2725C16.4368 16.3948 17.1305 15.6815 17.989 15.6776C18.8475 15.6738 19.5469 16.3823 19.5506 17.259V17.2619C19.5224 18.1252 18.8465 18.8202 18.0022 18.8539ZM19.561 14.2078V14.6029C19.0442 14.2376 18.4324 14.0405 17.8036 14.0367C16.0593 14.0674 14.669 15.5363 14.7001 17.3177C14.7293 19.0558 16.1017 20.4583 17.8036 20.4881C18.4314 20.4881 19.0433 20.2949 19.561 19.9325V20.3276H21.3391V14.2068L19.561 14.2078Z" fill="#1D1D1B"/>
<path d="M13.9597 11.4991H12.0977V20.3433H13.9597V11.4991Z" fill="#1D1D1B"/>
<path d="M5.88336 11.4991H3.91699V20.3433H5.88336V11.4991Z" fill="#1D1D1B"/>
<path d="M11.5092 20.3432H9.06933L6.12023 16.1884L6.88362 15.601C8.14214 14.6301 8.87918 13.1102 8.87071 11.499H10.7947C10.8051 13.3784 10.0831 15.1848 8.78694 16.5191L11.5092 20.3432Z" fill="#1D1D1B"/>
</svg>
