<svg width="70" height="47" viewBox="0 0 70 47" fill="none" xmlns="http://www.w3.org/2000/svg">
<g clip-path="url(#clip0_307_1370)">
<path d="M15.7071 16.9162C14.976 16.41 14.0219 16.1562 12.8448 16.1562H8.28796C7.92713 16.1562 7.72778 16.338 7.68991 16.7011L5.83882 28.4039C5.81958 28.5189 5.84813 28.624 5.92422 28.7195C5.99987 28.8153 6.09501 28.8629 6.20897 28.8629H8.37345C8.75308 28.8629 8.96175 28.6816 9.00005 28.318L9.51262 25.1629C9.53134 25.01 9.59811 24.8857 9.71206 24.79C9.82592 24.6944 9.96834 24.6319 10.1392 24.6033C10.3101 24.5749 10.4712 24.5605 10.6234 24.5605C10.7751 24.5605 10.9554 24.5703 11.1646 24.5893C11.3733 24.6083 11.5063 24.6177 11.5633 24.6177C13.1961 24.6177 14.4777 24.1543 15.4082 23.2266C16.3383 22.2993 16.8038 21.0135 16.8038 19.3685C16.8038 18.2404 16.4379 17.423 15.7071 16.9159V16.9162ZM13.3577 20.4302C13.2624 21.0996 13.0159 21.5392 12.6172 21.7496C12.2184 21.9603 11.6488 22.0651 10.9084 22.0651L9.96852 22.0937L10.4528 19.0245C10.4906 18.8144 10.6139 18.7092 10.8229 18.7092H11.3642C12.1233 18.7092 12.6743 18.8194 13.0161 19.0389C13.3577 19.259 13.4716 19.7228 13.3577 20.4302Z" fill="#003087"/>
<path d="M63.7959 16.1562H61.6886C61.4792 16.1562 61.3559 16.2615 61.3183 16.472L59.467 28.4044L59.4385 28.4618C59.4385 28.5579 59.4764 28.6483 59.5526 28.7344C59.6281 28.8203 59.7235 28.8633 59.8373 28.8633H61.7173C62.0774 28.8633 62.2768 28.682 62.3154 28.3184L64.1665 16.5867V16.5582C64.1664 16.2904 64.0426 16.1566 63.7959 16.1566V16.1562Z" fill="#009CDE"/>
<path d="M38.3351 20.7746C38.3351 20.6792 38.297 20.5882 38.2215 20.5024C38.1453 20.4164 38.0598 20.373 37.9651 20.373H35.7722C35.5629 20.373 35.392 20.4691 35.2593 20.6598L32.2405 25.1346L30.9874 20.8321C30.892 20.5264 30.6834 20.373 30.3608 20.373H28.2245C28.1293 20.373 28.0439 20.4162 27.9684 20.5024C27.8923 20.5882 27.8545 20.6794 27.8545 20.7746C27.8545 20.8131 28.0397 21.377 28.4098 22.467C28.78 23.5573 29.1787 24.7334 29.6059 25.9955C30.0332 27.2574 30.2561 27.9271 30.2752 28.0029C28.7181 30.145 27.94 31.2923 27.94 31.445C27.94 31.6938 28.0632 31.818 28.3102 31.818H30.5032C30.7119 31.818 30.8827 31.7226 31.0159 31.5313L38.2785 20.9753C38.3162 20.9374 38.3351 20.8708 38.3351 20.7745V20.7746Z" fill="#003087"/>
<path d="M58.7549 20.3736H56.5903C56.3242 20.3736 56.1634 20.6893 56.1064 21.3204C55.6121 20.5557 54.7109 20.1729 53.4005 20.1729C52.0335 20.1729 50.8704 20.6893 49.9118 21.7219C48.9529 22.7545 48.4736 23.9692 48.4736 25.3649C48.4736 26.4934 48.8011 27.3921 49.456 28.0611C50.1111 28.7309 50.9891 29.0651 52.0907 29.0651C52.6412 29.0651 53.2013 28.9501 53.7709 28.7209C54.3405 28.4914 54.7863 28.1856 55.1097 27.803C55.1097 27.8222 55.0903 27.908 55.0527 28.0609C55.0144 28.2141 54.9956 28.3292 54.9956 28.4051C54.9956 28.7114 55.1187 28.864 55.366 28.864H57.3312C57.6915 28.864 57.9006 28.6826 57.9574 28.3191L59.1253 20.8325C59.144 20.7177 59.1156 20.6127 59.0398 20.517C58.9635 20.4216 58.8687 20.3736 58.7549 20.3736ZM55.0383 26.0246C54.5541 26.5027 53.9702 26.7416 53.2867 26.7416C52.7359 26.7416 52.2901 26.5889 51.9481 26.2827C51.6062 25.9774 51.4353 25.5567 51.4353 25.0207C51.4353 24.3136 51.6727 23.7155 52.1476 23.228C52.6216 22.7403 53.2107 22.4966 53.9132 22.4966C54.4444 22.4966 54.886 22.6543 55.2376 22.9697C55.5885 23.2853 55.7647 23.7203 55.7647 24.2751C55.7645 24.9634 55.5224 25.5468 55.0383 26.0246Z" fill="#009CDE"/>
<path d="M26.4017 20.3736H24.2371C23.9709 20.3736 23.8099 20.6893 23.7529 21.3204C23.2402 20.5557 22.3383 20.1729 21.0472 20.1729C19.6801 20.1729 18.517 20.6893 17.5583 21.7219C16.5993 22.7545 16.1201 23.9692 16.1201 25.3649C16.1201 26.4934 16.4477 27.3921 17.1028 28.0611C17.7578 28.7309 18.6358 29.0651 19.7371 29.0651C20.2685 29.0651 20.8195 28.9501 21.389 28.7209C21.9585 28.4914 22.4143 28.1856 22.756 27.803C22.6799 28.0323 22.6421 28.2331 22.6421 28.4051C22.6421 28.7114 22.7654 28.864 23.0123 28.864H24.9774C25.3379 28.864 25.547 28.6826 25.604 28.3191L26.7717 20.8325C26.7904 20.7177 26.762 20.6127 26.6863 20.517C26.6103 20.4216 26.5155 20.3736 26.4017 20.3736ZM22.685 26.0388C22.2007 26.5079 21.6071 26.7416 20.905 26.7416C20.3541 26.7416 19.9126 26.5889 19.5806 26.2827C19.2482 25.9774 19.0822 25.5567 19.0822 25.0207C19.0822 24.3136 19.3194 23.7155 19.7942 23.228C20.2686 22.7403 20.8572 22.4965 21.56 22.4965C22.0914 22.4965 22.5328 22.6543 22.8844 22.9697C23.2354 23.2853 23.4113 23.7203 23.4113 24.2751C23.4112 24.9826 23.1692 25.5708 22.685 26.0388Z" fill="#003087"/>
<path d="M48.0608 16.9162C47.3297 16.41 46.3759 16.1562 45.1986 16.1562H40.6701C40.2903 16.1562 40.0813 16.338 40.0436 16.7011L38.1923 28.4039C38.1731 28.5189 38.2016 28.624 38.2778 28.7195C38.3531 28.8153 38.4485 28.8629 38.5625 28.8629H40.8978C41.1256 28.8629 41.2774 28.7387 41.3536 28.4901L41.8662 25.1629C41.8851 25.01 41.9515 24.8857 42.0656 24.79C42.1796 24.6944 42.3218 24.6319 42.4929 24.6033C42.6636 24.5749 42.8247 24.5605 42.977 24.5605C43.1288 24.5605 43.309 24.5703 43.518 24.5893C43.7268 24.6083 43.8601 24.6177 43.9167 24.6177C45.5498 24.6177 46.8312 24.1543 47.7617 23.2266C48.6921 22.2993 49.1572 21.0135 49.1572 19.3685C49.1573 18.2404 48.7916 17.4229 48.0608 16.9159V16.9162ZM45.1416 21.6348C44.7239 21.9215 44.0972 22.0649 43.262 22.0649L42.3505 22.0936L42.8347 19.0243C42.8723 18.8143 42.9957 18.7089 43.2048 18.7089H43.7173C44.1351 18.7089 44.4673 18.7281 44.7145 18.7662C44.9608 18.8046 45.1986 18.924 45.4264 19.1246C45.6544 19.3255 45.7682 19.6173 45.7682 19.9995C45.7682 20.803 45.5591 21.3477 45.1416 21.6348Z" fill="#009CDE"/>
</g>
<defs>
<clipPath id="clip0_307_1370">
<rect width="70" height="47" fill="white"/>
</clipPath>
</defs>
</svg>
