<svg width="27" height="27" viewBox="0 0 27 27" fill="none" xmlns="http://www.w3.org/2000/svg">
<path d="M20.2849 18.6939L25.1029 23.5119L23.5119 25.1029L18.6939 20.2849C16.9615 21.6709 14.7645 22.5 12.375 22.5C6.786 22.5 2.25 17.964 2.25 12.375C2.25 6.786 6.786 2.25 12.375 2.25C17.964 2.25 22.5 6.786 22.5 12.375C22.5 14.7645 21.6709 16.9615 20.2849 18.6939ZM18.0278 17.8591C19.4034 16.4414 20.25 14.5075 20.25 12.375C20.25 8.02406 16.7259 4.5 12.375 4.5C8.02406 4.5 4.5 8.02406 4.5 12.375C4.5 16.7259 8.02406 20.25 12.375 20.25C14.5075 20.25 16.4414 19.4034 17.8591 18.0278L18.0278 17.8591Z" fill="#0A3641"/>
</svg>
