<svg width="28" height="25" viewBox="0 0 28 25" fill="none" xmlns="http://www.w3.org/2000/svg">
<path d="M20.8602 17.3088L25.8148 21.77L24.1787 23.2431L19.2241 18.782C17.4426 20.0653 15.1833 20.833 12.726 20.833C6.97857 20.833 2.31396 16.633 2.31396 11.458C2.31396 6.28301 6.97857 2.08301 12.726 2.08301C18.4735 2.08301 23.1381 6.28301 23.1381 11.458C23.1381 13.6705 22.2854 15.7048 20.8602 17.3088ZM18.5391 16.5359C19.9537 15.2232 20.8243 13.4326 20.8243 11.458C20.8243 7.42936 17.2003 4.16634 12.726 4.16634C8.25173 4.16634 4.62776 7.42936 4.62776 11.458C4.62776 15.4867 8.25173 18.7497 12.726 18.7497C14.919 18.7497 16.9077 17.9658 18.3657 16.6921L18.5391 16.5359Z" fill="black"/>
</svg>
