<svg width="30" height="30" viewBox="0 0 30 30" fill="none" xmlns="http://www.w3.org/2000/svg">
<path d="M15.0059 1.25C18.4576 1.25 21.2559 4.04822 21.2559 7.5V10H25.0059C25.6963 10 26.2559 10.5596 26.2559 11.25V26.25C26.2559 26.9404 25.6963 27.5 25.0059 27.5H5.00586C4.31551 27.5 3.75586 26.9404 3.75586 26.25V11.25C3.75586 10.5596 4.31551 10 5.00586 10H8.75586V7.5C8.75586 4.04822 11.5541 1.25 15.0059 1.25ZM21.2559 13.75H18.7559V15C18.7559 15.6904 19.3155 16.25 20.0059 16.25C20.6469 16.25 21.1753 15.7675 21.2475 15.1457L21.2559 15V13.75ZM11.2559 13.75H8.75586V15C8.75586 15.6904 9.31551 16.25 10.0059 16.25C10.6469 16.25 11.1752 15.7675 11.2474 15.1457L11.2559 15V13.75ZM15.0059 3.75C13.0088 3.75 11.3763 5.31115 11.2622 7.27966L11.2559 7.5V10H18.7559V7.5C18.7559 5.5029 17.1948 3.87042 15.2263 3.75636L15.0059 3.75Z" fill="#0A3641"/>
</svg>
