<svg width="37" height="33" viewBox="0 0 37 33" fill="none" xmlns="http://www.w3.org/2000/svg">
<path d="M21.5833 6.16667C22.4011 6.16667 23.1853 5.84182 23.7636 5.26358C24.3418 4.68534 24.6667 3.90108 24.6667 3.08333C24.6667 2.26558 24.3418 1.48132 23.7636 0.903087C23.1853 0.32485 22.4011 0 21.5833 0C20.7656 0 19.9813 0.32485 19.4031 0.903087C18.8249 1.48132 18.5 2.26558 18.5 3.08333C18.5 3.90108 18.8249 4.68534 19.4031 5.26358C19.9813 5.84182 20.7656 6.16667 21.5833 6.16667ZM14.5944 10.2778C14.7165 10.2778 14.8385 10.2842 14.9542 10.297L12.95 16.316C12.3526 18.1146 13.0592 20.0931 14.6715 21.1016L20.2087 24.5639L18.712 29.8056H13.0271L15.6672 24.1464L13.5859 22.8424C13.0849 22.5276 12.6417 22.155 12.2627 21.7311L8.49201 29.8056H6.40434L9.88594 13.2583C10.1814 13.162 10.4641 12.995 10.7017 12.7573L12.1856 11.2734C12.8215 10.6375 13.6887 10.2778 14.5944 10.2778ZM7.79826 12.7573C7.82396 12.783 7.84965 12.8087 7.88177 12.8344L4.30382 29.8056H1.54167C0.687326 29.8056 0 30.4929 0 31.3472C0 32.2016 0.687326 32.8889 1.54167 32.8889H10.2328C10.2585 32.8889 10.2906 32.8889 10.3163 32.8889H20.5106C20.5427 32.8889 20.5748 32.8889 20.6005 32.8889H32.375C34.9316 32.8889 37 30.8205 37 28.2639V27.75C37 26.8957 36.3127 26.2083 35.4583 26.2083C34.604 26.2083 33.9167 26.8957 33.9167 27.75V28.2639C33.9167 29.1182 33.2293 29.8056 32.375 29.8056H27.917L29.6899 18.288C30.3644 17.954 30.8333 17.2538 30.8333 16.4444C30.8333 15.3075 29.9148 14.3889 28.7778 14.3889H27.4095C26.5809 14.3889 25.8293 13.8878 25.5146 13.1234L25.1099 12.1599C24.172 9.90521 22.2771 8.18368 19.9389 7.46424L16.8106 6.50069C16.0976 6.28229 15.3524 6.16667 14.6009 6.16667C12.6095 6.16667 10.6953 6.95677 9.28854 8.36997L7.80469 9.85382C7.00174 10.6568 7.00174 11.9608 7.80469 12.7637L7.79826 12.7573ZM27.583 18.5L25.8422 29.8056H22.9837L24.3712 24.9493C24.7502 23.626 24.2042 22.2128 23.0415 21.487L19.3993 19.2066L21.3842 13.9135L21.7118 14.7036C22.6753 17.0033 24.9172 18.5 27.4095 18.5H27.583Z" fill="#0A3641"/>
</svg>
