<svg width="54" height="18" viewBox="0 0 54 18" fill="none" xmlns="http://www.w3.org/2000/svg">
<path d="M50.4073 1.10059H47.0492C46.034 1.10059 45.2531 1.41529 44.7845 2.43808L38.3809 17.1506H42.9103C42.9103 17.1506 43.6912 15.1837 43.8474 14.7116C44.316 14.7116 48.7673 14.7116 49.3921 14.7116C49.5482 15.2623 49.9387 17.0719 49.9387 17.0719H53.9996L50.4073 1.10059ZM45.0969 11.4072C45.4874 10.4631 46.815 6.92264 46.815 6.92264C46.815 7.00131 47.2054 5.97852 47.3616 5.42779L47.674 6.84396C47.674 6.84396 48.533 10.6991 48.6892 11.4859H45.0969V11.4072Z" fill="#3362AB"/>
<path d="M38.6942 11.8799C38.6942 15.1843 35.7267 17.3873 31.1191 17.3873C29.1668 17.3873 27.2926 16.9939 26.2773 16.5218L26.9021 12.9027L27.4487 13.1387C28.8544 13.7682 29.7916 14.0042 31.5096 14.0042C32.7591 14.0042 34.0867 13.5321 34.0867 12.4307C34.0867 11.7226 33.54 11.2505 31.822 10.4637C30.182 9.67699 27.9954 8.41817 27.9954 6.13655C27.9954 2.9895 31.0411 0.865234 35.3362 0.865234C36.9762 0.865234 38.3818 1.17994 39.2409 1.57332L38.6161 5.03508L38.3038 4.72038C37.5228 4.40567 36.5076 4.09097 35.0238 4.09097C33.3839 4.16964 32.6029 4.87773 32.6029 5.50714C32.6029 6.21523 33.54 6.76596 35.0238 7.47405C37.5228 8.65419 38.6942 9.99169 38.6942 11.8799Z" fill="#3362AB"/>
<path d="M0.583984 1.25904L0.662078 0.944336H7.37812C8.31525 0.944336 9.01809 1.25904 9.25237 2.28183L10.7361 9.36271C9.25237 5.58624 5.81625 2.51786 0.583984 1.25904Z" fill="#F9B50B"/>
<path d="M20.1852 1.10114L13.3911 17.0724H8.78358L4.87891 3.69746C7.69027 5.50701 10.0331 8.33936 10.8921 10.3063L11.3607 11.9585L15.5777 1.02246H20.1852V1.10114Z" fill="#3362AB"/>
<path d="M21.9833 1.02246H26.2784L23.5451 17.0724H19.25L21.9833 1.02246Z" fill="#3362AB"/>
</svg>
