<svg width="30" height="25" viewBox="0 0 30 25" fill="none" xmlns="http://www.w3.org/2000/svg">
<mask id="mask0_337_1311" style="mask-type:alpha" maskUnits="userSpaceOnUse" x="0" y="0" width="30" height="25">
<path d="M15.3659 0.438477C16.167 0.442887 18.1715 0.462267 20.3012 0.547572L21.0563 0.580496C23.2005 0.682016 25.343 0.855447 26.4056 1.15173C27.8229 1.5499 28.937 2.71173 29.3135 4.18446C29.913 6.52309 29.988 11.0876 29.9973 12.1922L29.9987 12.4211V12.4371C29.9987 12.4371 29.9987 12.4427 29.9987 12.4533L29.9973 12.6822C29.988 13.7868 29.913 18.3513 29.3135 20.69C28.9317 22.1681 27.8177 23.33 26.4056 23.7227C25.343 24.0189 23.2005 24.1923 21.0563 24.2939L20.3012 24.3267C18.1715 24.4121 16.167 24.4314 15.3659 24.4359L15.0143 24.4371H14.9987C14.9987 24.4371 14.9934 24.4371 14.9831 24.4371L14.6318 24.4359C12.9362 24.4266 5.84658 24.35 3.59176 23.7227C2.1744 23.3244 1.06038 22.1627 0.683805 20.69C0.0842999 18.3513 0.00936 13.7868 0 12.6822V12.1922C0.00936 11.0876 0.0842999 6.52309 0.683805 4.18446C1.0656 2.70627 2.17962 1.54446 3.59176 1.15173C5.84658 0.524322 12.9362 0.447807 14.6318 0.438477H15.3659ZM11.9987 7.18719V17.6871L20.9987 12.4371L11.9987 7.18719Z" fill="#475569"/>
</mask>
<g mask="url(#mask0_337_1311)">
<rect x="-6" y="-8.56128" width="40.5" height="43.5" fill="white"/>
</g>
</svg>
